HIERARCHY
ROOT Hips
{
	OFFSET 0.000000 0.000000 0.000000
	CHANNELS 6 Xposition Yposition Zposition Zrotation Yrotation Xrotation 
	JOINT LeftUpLeg_virtual
	{
		OFFSET 0.000000 0.000000 0.000000
		CHANNELS 3 Zrotation Yrotation Xrotation
		JOINT LeftUpLeg
		{
			OFFSET 8.479694 -4.795517 -0.379053
			CHANNELS 3 Zrotation Yrotation Xrotation
			JOINT LeftLeg
			{
				OFFSET 0.485052 -32.551468 0.112863
				CHANNELS 3 Zrotation Yrotation Xrotation
				JOINT LeftFoot
				{
					OFFSET 0.438033 -32.635670 -3.012641
					CHANNELS 3 Zrotation Yrotation Xrotation
					JOINT LeftToeBase
					{
						OFFSET 0.970169 -13.225353 11.864223
						CHANNELS 3 Zrotation Yrotation Xrotation
						End Site
						{
							OFFSET 0.000000 0.000000 0.000000
						}
					}
				}
			}
		}
	}
	JOINT RightUpLeg_virtual
	{
		OFFSET 0.000000 0.000000 0.000000
		CHANNELS 3 Zrotation Yrotation Xrotation
		JOINT RightUpLeg
		{
			OFFSET -8.479694 -4.795517 -0.379053
			CHANNELS 3 Zrotation Yrotation Xrotation
			JOINT RightLeg
			{
				OFFSET -0.484100 -32.551483 0.112903
				CHANNELS 3 Zrotation Yrotation Xrotation
				JOINT RightFoot
				{
					OFFSET -0.438985 -32.635651 -3.012681
					CHANNELS 3 Zrotation Yrotation Xrotation
					JOINT RightToeBase
					{
						OFFSET -0.970169 -13.225354 11.864223
						CHANNELS 3 Zrotation Yrotation Xrotation
						End Site
						{
							OFFSET 0.000000 0.000000 0.000000
						}
					}
				}
			}
		}
	}
	JOINT Spine_virtual
	{
		OFFSET 0.000000 0.000000 0.000000
		CHANNELS 3 Zrotation Yrotation Xrotation
		JOINT Spine
		{
			OFFSET 0.000000 7.722015 1.166203
			CHANNELS 3 Zrotation Yrotation Xrotation
			JOINT Spine1
			{
				OFFSET 0.000000 12.024086 0.248766
				CHANNELS 3 Zrotation Yrotation Xrotation
				JOINT Spine2
				{
					OFFSET -0.000000 11.503036 -0.491240
					CHANNELS 3 Zrotation Yrotation Xrotation
					JOINT Neck_virtual
					{
						OFFSET 0.000000 0.000000 0.000000
						CHANNELS 3 Zrotation Yrotation Xrotation
						JOINT Neck
						{
							OFFSET 0.000000 18.430687 -3.123054
							CHANNELS 3 Zrotation Yrotation Xrotation
							JOINT Head
							{
								OFFSET -0.000000 9.051071 1.034021
								CHANNELS 3 Zrotation Yrotation Xrotation
								End Site
								{
									OFFSET 0.000000 0.000000 0.000000
								}
							}
						}
					}
					JOINT LeftShoulder_virtual
					{
						OFFSET 0.000000 0.000000 0.000000
						CHANNELS 3 Zrotation Yrotation Xrotation
						JOINT LeftShoulder
						{
							OFFSET 6.197824 13.665230 -4.064723
							CHANNELS 3 Zrotation Yrotation Xrotation
							JOINT LeftArm
							{
								OFFSET 7.778132 -0.187073 -1.709282
								CHANNELS 3 Zrotation Yrotation Xrotation
								JOINT LeftForeArm
								{
									OFFSET 21.954697 0.000000 -2.041093
									CHANNELS 3 Zrotation Yrotation Xrotation
									JOINT LeftHand
									{
										OFFSET 22.992908 0.000000 -0.870901
										CHANNELS 3 Zrotation Yrotation Xrotation
										End Site
										{
											OFFSET 0.000000 0.000000 0.000000
										}
									}
								}
							}
						}
					}
					JOINT RightShoulder_virtual
					{
						OFFSET 0.000000 0.000000 0.000000
						CHANNELS 3 Zrotation Yrotation Xrotation
						JOINT RightShoulder
						{
							OFFSET -6.197824 13.665230 -4.064723
							CHANNELS 3 Zrotation Yrotation Xrotation
							JOINT RightArm
							{
								OFFSET -7.778132 -0.187073 -1.709282
								CHANNELS 3 Zrotation Yrotation Xrotation
								JOINT RightForeArm
								{
									OFFSET -21.954697 0.000000 -2.041093
									CHANNELS 3 Zrotation Yrotation Xrotation
									JOINT RightHand
									{
										OFFSET -22.992908 0.000000 -0.870901
										CHANNELS 3 Zrotation Yrotation Xrotation
										End Site
										{
											OFFSET 0.000000 0.000000 0.000000
										}
									}
								}
							}
						}
					}
				}
			}
		}
	}
}
MOTION
Frames: 11
Frame Time: 0.033333
43.084332 82.127663 -63.986366 -179.860150 -43.041817 179.866543 -1.659050 -1.402038 12.833914 4.138181 -1.395313 -35.933325 3.797341 1.687456 47.671449 -1.753667 -8.176206 0.476795 0.000000 0.000000 0.000000 2.329432 -3.010681 13.344315 -0.558021 -0.033864 -23.007506 -0.736175 3.408417 30.568723 9.660441 5.988955 -8.599187 0.000000 0.000000 0.000000 3.278618 1.352560 1.110917 0.533119 0.839667 -6.308122 -0.764068 -1.730636 6.447432 -0.040023 -0.001685 -0.009269 -1.055694 0.006980 7.353411 -8.659367 -2.264906 5.961959 0.000000 0.000000 0.000000 0.904096 0.583869 4.269590 -8.938515 -9.160111 3.254720 -56.152112 -3.609149 25.866521 -4.506697 -20.789380 7.646455 0.000000 0.000000 0.000000 -4.379575 2.222732 3.396456 29.198338 0.948230 0.939088 55.976703 -4.459740 9.338288 -169.548340 70.989093 -172.929421 0.000000 0.000000 0.000000 
41.527409 82.012718 -65.201813 -179.982711 -47.231462 179.976195 -1.649792 -1.676207 12.696474 4.153153 -0.438597 -38.180344 4.198269 2.210146 43.424898 -2.073143 -8.535620 1.816031 0.000000 0.000000 0.000000 2.575674 -3.204710 13.451684 -0.325980 -2.088987 -20.767996 -0.887910 3.331110 30.035316 8.725591 5.516636 -10.198219 0.000000 0.000000 0.000000 3.535555 0.972789 0.893265 0.371189 1.042096 -6.345792 -0.816620 -1.714075 6.583402 -0.017279 -0.009986 -0.012067 -1.128367 0.067262 7.501244 -8.903415 -2.166675 5.861946 0.000000 0.000000 0.000000 0.888811 0.654050 4.439319 -9.042343 -8.965220 3.208141 -55.692352 -1.315457 25.110613 -4.237933 -19.989867 8.325791 0.000000 0.000000 0.000000 -4.509540 2.330687 3.470805 29.336100 1.241956 1.139088 54.959370 -5.035695 9.664061 -169.650848 71.170134 -172.611584 0.000000 0.000000 0.000000 
39.841667 81.757484 -66.419930 179.930924 -51.056306 -179.923452 -1.632847 -1.778029 12.429587 3.948723 0.487603 -40.280108 4.725440 2.902179 39.104892 -2.527854 -9.175767 2.517413 0.000000 0.000000 0.000000 2.701938 -3.194298 13.524483 0.011289 -3.814754 -18.588872 -1.185233 2.753695 29.872935 7.856352 5.160719 -11.922493 0.000000 0.000000 0.000000 3.812413 0.763668 0.660225 0.209037 1.235101 -6.356631 -0.865376 -1.639903 6.760566 0.045679 0.065699 0.062482 -1.221134 0.065187 7.546861 -9.120364 -1.994621 5.648274 0.000000 0.000000 0.000000 0.827170 0.605091 4.427990 -9.126389 -8.696419 3.127220 -55.748103 1.025877 24.658912 -4.036561 -19.253002 8.924945 0.000000 0.000000 0.000000 -4.664075 2.249351 3.484955 29.465013 1.726162 1.414959 53.814664 -5.573772 10.518042 -170.032573 71.274110 -172.592815 0.000000 0.000000 0.000000 
38.070267 81.385361 -67.589005 179.941060 -54.507833 -179.949530 -1.696540 -1.742359 12.230185 3.197092 1.561319 -42.409198 5.372352 3.415465 35.340092 -3.001319 -9.995879 2.192578 0.000000 0.000000 0.000000 2.520726 -3.353251 13.580216 0.634841 -4.713171 -16.376176 -1.285169 2.308383 29.607958 6.756331 4.533740 -13.453281 0.000000 0.000000 0.000000 4.009929 0.575824 0.558332 0.138316 1.235544 -6.415174 -0.947430 -1.682227 6.934976 0.013973 0.020732 0.020357 -1.209311 0.061968 7.737399 -9.292075 -1.804612 5.320803 0.000000 0.000000 0.000000 0.930105 0.685536 4.525279 -9.121304 -8.343432 3.123416 -56.246475 3.234139 24.582452 -3.844929 -18.558720 9.398364 0.000000 0.000000 0.000000 -4.696876 2.334979 3.643647 29.650517 2.266301 1.627955 52.752987 -5.959326 11.478559 -170.374820 71.220759 -172.612063 0.000000 0.000000 0.000000 
36.252277 80.915688 -68.734550 179.769910 -57.625445 -179.841640 -1.888727 -1.677458 12.204298 2.111299 2.413028 -44.412591 5.762071 3.999969 32.404023 -3.064339 -10.608950 0.531957 0.000000 0.000000 0.000000 2.386692 -4.066493 13.779855 0.905080 -5.748501 -14.556489 -1.288649 2.089903 29.787411 6.254435 4.360359 -14.687289 0.000000 0.000000 0.000000 3.877142 0.551735 0.579156 0.001349 1.230570 -6.490839 -0.955297 -1.682654 7.089291 0.044917 0.050998 0.011378 -1.231398 -0.193264 7.807718 -9.438289 -1.597366 4.969514 0.000000 0.000000 0.000000 0.937725 0.646896 4.548133 -8.982241 -8.085732 3.086979 -57.043520 5.267065 24.825916 -3.752956 -17.914649 10.021819 0.000000 0.000000 0.000000 -4.765119 2.326534 3.653525 30.017452 2.739039 1.847225 52.078884 -6.013655 12.198372 -170.747025 71.125451 -172.784019 0.000000 0.000000 0.000000 
34.320923 80.409325 -69.764397 179.309172 -60.072566 -179.353009 -2.301542 -1.451811 12.291730 0.571583 3.177430 -45.976302 6.301731 5.005307 30.940053 -3.022115 -11.331019 -2.230239 0.000000 0.000000 0.000000 1.613769 -5.028461 13.854007 1.470275 -5.862539 -13.216248 -1.305964 1.997288 30.502870 5.948887 4.213669 -15.381555 0.000000 0.000000 0.000000 3.368584 0.666337 0.564456 -0.172387 1.194152 -6.626687 -1.015114 -1.683389 7.162346 0.033137 0.081658 -0.025869 -1.180529 0.023455 7.848112 -9.450444 -1.473192 4.566843 0.000000 0.000000 0.000000 1.053201 0.660962 4.548343 -8.660775 -7.718538 3.058177 -58.020586 7.214810 25.400601 -3.599784 -17.208103 10.486172 0.000000 0.000000 0.000000 -4.700370 2.316359 3.747361 30.378202 3.349966 2.101389 51.850572 -5.701347 12.794892 -170.545193 71.092461 -172.469107 0.000000 0.000000 0.000000 
32.286133 79.938538 -70.701073 179.047986 -61.564566 -178.955724 -2.627580 -0.161197 12.288958 -0.719214 2.714105 -46.984632 6.773173 5.520809 30.590143 -2.728844 -11.916883 -4.612933 0.000000 0.000000 0.000000 0.588174 -5.397905 13.871301 2.105621 -6.222506 -11.857091 -1.336796 1.247626 31.402140 5.832140 4.011736 -15.550099 0.000000 0.000000 0.000000 2.701264 0.962051 0.377770 -0.226449 1.305093 -6.754893 -1.002923 -1.565354 7.183039 0.060541 0.237084 -0.056549 -1.175594 0.036277 7.777453 -9.579699 -1.309856 4.093145 0.000000 0.000000 0.000000 1.148921 0.730241 4.465430 -8.384497 -7.249117 3.126832 -59.040961 9.132468 26.046298 -3.396468 -16.533882 10.932963 0.000000 0.000000 0.000000 -4.608837 2.370598 3.871008 30.862281 4.034314 2.532109 51.801019 -5.142265 13.169344 -170.402373 71.174314 -172.305182 0.000000 0.000000 0.000000 
29.987511 79.552208 -71.664810 178.765981 -63.711308 -178.485356 -2.897251 -0.590653 12.236601 -1.785381 2.372659 -47.291557 7.137932 5.137533 31.316376 -3.197393 -12.961053 -6.405325 0.000000 0.000000 0.000000 0.014451 -5.081580 13.827104 2.183317 -6.315127 -10.528721 -1.006559 0.862812 32.374410 6.882012 5.013074 -14.750099 0.000000 0.000000 0.000000 2.021053 1.047742 -0.082406 -0.150461 1.256633 -6.733316 -1.004234 -1.647431 7.225711 0.055810 0.202263 0.004646 -1.158016 0.083503 7.612586 -9.655750 -1.261752 3.623043 0.000000 0.000000 0.000000 1.219299 0.666548 4.416073 -8.057366 -6.912259 3.162205 -60.214654 10.794962 26.745300 -3.216717 -15.899108 11.318077 0.000000 0.000000 0.000000 -4.528999 2.429196 3.797659 31.096174 4.592245 2.867234 52.148942 -4.866471 13.396973 -170.302844 71.284239 -172.250240 0.000000 0.000000 0.000000 
27.308952 79.278198 -72.575089 178.720260 -65.410522 -178.500287 -2.632130 -1.177063 12.249341 -1.664521 0.142774 -46.865326 7.654643 3.980439 33.071424 -4.672368 -14.752164 -8.489850 0.000000 0.000000 0.000000 -0.260748 -4.628480 13.740953 1.397478 -5.706955 -9.386245 -0.538710 1.358660 34.041437 8.836084 6.705381 -11.841976 0.000000 0.000000 0.000000 1.554816 1.062597 -0.325404 0.146585 1.331013 -6.701731 -0.989221 -1.678611 7.262297 0.019543 0.211461 0.028546 -1.122924 0.005378 7.556370 -9.734274 -1.247218 3.324850 0.000000 0.000000 0.000000 1.298913 0.636845 4.460073 -7.840648 -6.619820 3.230137 -61.473526 12.000711 27.332090 -3.060774 -15.422497 11.547238 0.000000 0.000000 0.000000 -4.427758 2.356509 3.734219 31.071938 4.963189 3.239424 52.323805 -5.039261 13.849955 -169.715420 71.241755 -171.741091 0.000000 0.000000 0.000000 
24.266245 79.125099 -73.393631 178.673719 -66.783855 -178.476354 -2.170229 -2.024059 12.332161 -1.377540 -2.336678 -46.134192 8.474639 3.376459 35.116516 -5.550089 -15.857433 -10.369800 0.000000 0.000000 0.000000 -0.391045 -4.160598 13.379550 -0.176651 -4.836608 -8.901184 -0.205452 1.933998 36.958522 10.748355 7.854347 -7.590515 0.000000 0.000000 0.000000 1.427292 0.923850 -0.597616 0.529826 1.360123 -6.472732 -0.964593 -1.736858 7.330132 0.140811 0.197452 0.053920 -1.145469 0.016400 7.452934 -9.658462 -1.362074 2.845831 0.000000 0.000000 0.000000 1.217993 0.603478 4.444877 -7.843302 -6.386091 3.300501 -62.822461 12.689841 27.968841 -2.914465 -15.126274 11.734303 0.000000 0.000000 0.000000 -4.565299 2.410618 3.680020 30.868313 5.344028 3.571759 52.395235 -5.464069 13.974162 -169.288752 71.333580 -171.384760 0.000000 0.000000 0.000000 
21.048264 79.104561 -74.031601 179.038601 -68.163273 -178.990435 -1.892245 -2.309802 12.629180 -1.083570 -4.521619 -44.985214 9.330196 3.335101 36.741944 -5.521758 -15.761556 -11.450265 0.000000 0.000000 0.000000 -0.392455 -3.590193 13.082685 -2.196493 -3.626107 -9.502847 0.241470 2.788597 41.587376 12.584544 8.904453 -3.523560 0.000000 0.000000 0.000000 1.579828 0.943403 -0.619221 1.085674 1.401749 -6.195166 -0.925480 -1.750489 7.458861 0.076017 0.201057 0.017988 -1.122111 -0.300225 7.387639 -9.664148 -1.417971 2.475542 0.000000 0.000000 0.000000 1.185068 0.576253 4.382459 -7.782327 -6.352990 3.416055 -64.017628 12.441283 28.643230 -2.836892 -14.859374 11.769170 0.000000 0.000000 0.000000 -4.498130 2.340695 3.499933 30.444079 5.456809 3.792592 52.454354 -5.899007 13.749241 -168.969919 71.439817 -171.137889 0.000000 0.000000 0.000000 
